<svg xmlns="http://www.w3.org/2000/svg" xmlns:xlink="http://www.w3.org/1999/xlink" style="margin: auto; display: block;" width="21px" height="21px" viewBox="0 0 100 100" preserveAspectRatio="xMidYMid">
<g transform="rotate(0 50 50)">
  <rect x="45" y="-0.5" rx="3.15" ry="3.15" width="10" height="21" fill="#ffffff">
    <animate attributeName="opacity" values="1;0" keyTimes="0;1" dur="100s" begin="-92.3076923076923s" repeatCount="indefinite"></animate>
  </rect>
</g><g transform="rotate(27.692307692307693 50 50)">
  <rect x="45" y="-0.5" rx="3.15" ry="3.15" width="10" height="21" fill="#ffffff">
    <animate attributeName="opacity" values="1;0" keyTimes="0;1" dur="100s" begin="-84.61538461538461s" repeatCount="indefinite"></animate>
  </rect>
</g><g transform="rotate(55.38461538461539 50 50)">
  <rect x="45" y="-0.5" rx="3.15" ry="3.15" width="10" height="21" fill="#ffffff">
    <animate attributeName="opacity" values="1;0" keyTimes="0;1" dur="100s" begin="-76.92307692307692s" repeatCount="indefinite"></animate>
  </rect>
</g><g transform="rotate(83.07692307692308 50 50)">
  <rect x="45" y="-0.5" rx="3.15" ry="3.15" width="10" height="21" fill="#ffffff">
    <animate attributeName="opacity" values="1;0" keyTimes="0;1" dur="100s" begin="-69.23076923076923s" repeatCount="indefinite"></animate>
  </rect>
</g><g transform="rotate(110.76923076923077 50 50)">
  <rect x="45" y="-0.5" rx="3.15" ry="3.15" width="10" height="21" fill="#ffffff">
    <animate attributeName="opacity" values="1;0" keyTimes="0;1" dur="100s" begin="-61.53846153846153s" repeatCount="indefinite"></animate>
  </rect>
</g><g transform="rotate(138.46153846153845 50 50)">
  <rect x="45" y="-0.5" rx="3.15" ry="3.15" width="10" height="21" fill="#ffffff">
    <animate attributeName="opacity" values="1;0" keyTimes="0;1" dur="100s" begin="-53.84615384615385s" repeatCount="indefinite"></animate>
  </rect>
</g><g transform="rotate(166.15384615384616 50 50)">
  <rect x="45" y="-0.5" rx="3.15" ry="3.15" width="10" height="21" fill="#ffffff">
    <animate attributeName="opacity" values="1;0" keyTimes="0;1" dur="100s" begin="-46.15384615384615s" repeatCount="indefinite"></animate>
  </rect>
</g><g transform="rotate(193.84615384615384 50 50)">
  <rect x="45" y="-0.5" rx="3.15" ry="3.15" width="10" height="21" fill="#ffffff">
    <animate attributeName="opacity" values="1;0" keyTimes="0;1" dur="100s" begin="-38.46153846153846s" repeatCount="indefinite"></animate>
  </rect>
</g><g transform="rotate(221.53846153846155 50 50)">
  <rect x="45" y="-0.5" rx="3.15" ry="3.15" width="10" height="21" fill="#ffffff">
    <animate attributeName="opacity" values="1;0" keyTimes="0;1" dur="100s" begin="-30.769230769230766s" repeatCount="indefinite"></animate>
  </rect>
</g><g transform="rotate(249.23076923076923 50 50)">
  <rect x="45" y="-0.5" rx="3.15" ry="3.15" width="10" height="21" fill="#ffffff">
    <animate attributeName="opacity" values="1;0" keyTimes="0;1" dur="100s" begin="-23.076923076923077s" repeatCount="indefinite"></animate>
  </rect>
</g><g transform="rotate(276.9230769230769 50 50)">
  <rect x="45" y="-0.5" rx="3.15" ry="3.15" width="10" height="21" fill="#ffffff">
    <animate attributeName="opacity" values="1;0" keyTimes="0;1" dur="100s" begin="-15.384615384615383s" repeatCount="indefinite"></animate>
  </rect>
</g><g transform="rotate(304.61538461538464 50 50)">
  <rect x="45" y="-0.5" rx="3.15" ry="3.15" width="10" height="21" fill="#ffffff">
    <animate attributeName="opacity" values="1;0" keyTimes="0;1" dur="100s" begin="-7.692307692307692s" repeatCount="indefinite"></animate>
  </rect>
</g><g transform="rotate(332.3076923076923 50 50)">
  <rect x="45" y="-0.5" rx="3.15" ry="3.15" width="10" height="21" fill="#ffffff">
    <animate attributeName="opacity" values="1;0" keyTimes="0;1" dur="100s" begin="0s" repeatCount="indefinite"></animate>
  </rect>
</g>
</svg>